<svg xmlns="http://www.w3.org/2000/svg" xmlns:xlink="http://www.w3.org/1999/xlink" width="198" zoomAndPan="magnify" viewBox="0 0 148.5 198.749995" height="265" preserveAspectRatio="xMidYMid meet" version="1.0"><defs><clipPath id="aeb42c289a"><path d="M 16 5 L 148 5 L 148 198.292969 L 16 198.292969 Z M 16 5 " clip-rule="nonzero"/></clipPath><clipPath id="c46640de68"><path d="M 16.007812 223.417969 L -2.839844 2.972656 L 184.726562 -13.0625 L 203.574219 207.382812 Z M 16.007812 223.417969 " clip-rule="nonzero"/></clipPath><clipPath id="e575d24299"><path d="M 203.492188 207.390625 L 184.644531 -13.054688 L -2.921875 2.980469 L 15.925781 223.425781 Z M 203.492188 207.390625 " clip-rule="nonzero"/></clipPath></defs><g clip-path="url(#aeb42c289a)"><g clip-path="url(#c46640de68)"><g clip-path="url(#e575d24299)"><path fill="#e6a14a" d="M 53.238281 6.417969 C 10.625 18.335938 3.671875 64.652344 41.292969 101.496094 C 78.910156 138.339844 9.722656 150.785156 40.988281 184.6875 C 72.253906 218.59375 108.226562 190.265625 121.996094 177.765625 C 135.761719 165.265625 177.761719 171.691406 186.402344 140.03125 C 195.042969 108.375 165.757812 82.710938 153.765625 69.667969 C 147.351562 62.6875 95.851562 -5.5 53.238281 6.417969 Z M 53.238281 6.417969 " fill-opacity="1" fill-rule="nonzero"/></g></g></g></svg>